# xmcd
#
# Track frame offsets:
#	150
#	9986
#	20912
#	32459
#	46344
#	58079
#	69798
#	80701
#	90866
#	101936
#	112654
#	125459
#	135084
#	147122
#	163655
#	177833
#	192408
#	205410
#	218645
#	230925
#	243416
#	254355
#	270641
#	284333
#	297384
#	311251
#	323321
#
# Disc length: 4503 seconds
#
# Revision: 2
# Processed by: cddbd v1.5.2PL0 Copyright (c) Steve Scherf et al.
# Submitted via: EZCDAudioConverter 4.0.5.1
#
DISCID=7811951b
DTITLE=Charlie Rich - A Rich Anthology 1960-1978
DYEAR=2011
DGENRE=Country
TTITLE0=Lonely Weekends
TTITLE1=Who Will The Next Fool Be?
TTITLE2=Break Up
TTITLE3=Sittin' And Thinkin'
TTITLE4=Big Boss Man
TTITLE5=The Ways Of A Woman In Love
TTITLE6=There Won't Be Anymore
TTITLE7=I Don't See Me In Your Eyes Anymore
TTITLE8=She Called Me Baby
TTITLE9=She Loved Everybody But Me
TTITLE10=River, Stay 'way From My Door
TTITLE11=Mohair Sam
TTITLE12=I Washed My Hands In Muddy Water
TTITLE13=Life's Little Ups And Downs
TTITLE14=Have A Heart
TTITLE15=Woman Left Lonely
TTITLE16=I Take It On Home
TTITLE17=Behind Closed Doors
TTITLE18=The Most Beautiful Girl
TTITLE19=A Very Special Love Song
TTITLE20=I Love My Friend
TTITLE21=My Elusive Dreams
TTITLE22=Every Time You Touch Me (I Get High)
TTITLE23=All Over Me
TTITLE24=Since I Fell For You
TTITLE25=Rollin' With The Flow
TTITLE26=On My Knees (with Janie Fricke)
EXTD=
EXTT0=
EXTT1=
EXTT2=
EXTT3=
EXTT4=
EXTT5=
EXTT6=
EXTT7=
EXTT8=
EXTT9=
EXTT10=
EXTT11=
EXTT12=
EXTT13=
EXTT14=
EXTT15=
EXTT16=
EXTT17=
EXTT18=
EXTT19=
EXTT20=
EXTT21=
EXTT22=
EXTT23=
EXTT24=
EXTT25=
EXTT26=
PLAYORDER=
